# AST/ASF file generated using VICON BodyLanguage
# -----------------------------------------------
:version 1.10
:name VICON
:units
  mass 1.0
  length 0.45
  angle deg
:documentation
   .ast/.asf automatically generated from VICON data using
   VICON BodyBuilder and BodyLanguage model FoxedUp or BRILLIANT.MOD
:root
   order TX TY TZ RX RY RZ
   axis XYZ
   position 0 0 0  
   orientation 0 0 0 
:bonedata
  begin
     id 1 
     name lhipjoint
     direction 0.661853 -0.702389 0.261917 
     length 2.64193 
     axis 0 0 0  XYZ
  end
  begin
     id 2 
     name lfemur
     direction 0.34202 -0.939693 0  
     length 7.01722  
     axis 0 0 20  XYZ
    dof rx ry rz
    limits (-160.0 20.0)
           (-70.0 70.0)
           (-60.0 70.0)
  end
  begin
     id 3 
     name ltibia
     direction 0.34202 -0.939693 0   
     length 8.25008   
     axis 0 0 20   XYZ
    dof rx
    limits (-10.0 170.0)
  end
  begin
     id 4 
     name lfoot
     direction 0.0709916 -0.195048 0.978221   
     length 2.31941   
     axis -90 7.62852e-016 20   XYZ
    dof rx rz
    limits (-45.0 90.0)
           (-70.0 20.0)
  end
  begin
     id 5 
     name ltoes
     direction 1.53586e-011 -4.22017e-011 1   
     length 1.16486   
     axis -90 7.62852e-016 20   XYZ
    dof rx
    limits (-90.0 20.0)
  end
  begin
     id 6 
     name rhipjoint
     direction -0.638185 -0.721362 0.268992   
     length 2.57244  
     axis 0 0 0  XYZ 
  end
  begin
     id 7 
     name rfemur
     direction -0.34202 -0.939693 0   
     length 7.07017   
     axis 0 0 -20   XYZ
    dof rx ry rz
    limits (-160.0 20.0)
           (-70.0 70.0)
           (-70.0 60.0)
  end
  begin
     id 8 
     name rtibia
     direction -0.34202 -0.939693 0   
     length 8.20386   
     axis 0 0 -20   XYZ
    dof rx
    limits (-10.0 170.0)
 end
 begin
     id 9 
     name rfoot
     direction -0.0822429 -0.225961 0.970658   
     length 2.32215  
     axis -90 -7.62852e-016 -20   XYZ
    dof rx rz
    limits (-45.0 90.0)
           (-20.0 70.0)
  end
  begin
     id 10 
     name rtoes
     direction -1.53597e-011 -4.21689e-011 1   
     length 1.16333   
     axis -90 -7.62852e-016 -20   XYZ
    dof rx
    limits (-90.0 20.0)
  end
  begin
     id 11 
     name lowerback
     direction -0.0131557 0.998589 -0.0514484   
     length 2.14993   
     axis 0 0 0   XYZ
    dof rx ry rz
    limits (-20.0 45.0)
           (-30.0 30.0)
           (-30.0 30.0)
  end
  begin
     id 12 
     name upperback
     direction -0.000776481 0.999993 0.00352685   
     length 2.15301   
     axis 0 0 0   XYZ
    dof rx ry rz
    limits (-20.0 45.0)
           (-30.0 30.0)
           (-30.0 30.0)
  end
  begin
     id 13 
     name thorax
     direction 0.00438186 0.999609 0.0276143   
     length 2.15424   
     axis 0 0 0   XYZ
    dof rx ry rz
    limits (-20.0 45.0)
           (-30.0 30.0)
           (-30.0 30.0)
  end
  begin
     id 14 
     name lowerneck
     direction -0.0488006 0.998094 0.0377807   
     length 1.90481   
     axis 0 0 0   XYZ
    dof rx ry rz
    limits (-20.0 45.0)
           (-30.0 30.0)
           (-30.0 30.0)
  end
  begin
     id 15 
     name upperneck
     direction 0.0443769 0.990702 -0.12861   
     length 1.91305   
     axis 0 0 0   XYZ
    dof rx ry rz
    limits (-20.0 45.0)
           (-30.0 30.0)
           (-30.0 30.0)
  end
  begin
     id 16
     name head
     direction 0.0165599 0.998647 -0.0492982  
     length 1.92369  
     axis 0 0 0   XYZ
    dof rx ry rz
    limits (-20.0 45.0)
           (-30.0 30.0)
           (-30.0 30.0)
  end
  begin
     id 17 
     name lclavicle
     direction 0.911936 0.410197 -0.0105506  
     length 3.52622  
     axis 0 0 0   XYZ
    dof ry rz
    limits (-20.0 10.0)
           (0.0 20.0)
  end
  begin
     id 18 
     name lhumerus
     direction 1 -4.48974e-011 -2.48591e-028   
     length 5.47651   
     axis 180 -30 -90   XYZ
    dof rx ry rz
    limits (-60.0 90.0)
           (-90.0 90.0)
           (-90.0 90.0)
  end
  begin
     id 19
     name lradius
     direction 1 -4.48938e-011 -4.40099e-027   
     length 3.09058   
     axis 180 -30 -90   XYZ
    dof rx
    limits (-10.0 170.0)
  end
  begin
     id 20
     name lwrist
     direction 1 -4.49042e-011 -2.99852e-027   
     length 1.54529   
     axis 1.95339e-015 90 90   XYZ
    dof ry
    limits (-180.0 0.0)
 end
  begin
     id 21 
     name lhand
     direction 1 -4.48815e-011 -5.98193e-027   
     length 0.771611   
     axis 3.82337e-015 90 90   XYZ
    dof rx rz
    limits (-90.0 90.0)
           (-45.0 45.0)
  end
  begin
     id 22 
     name lfingers
     direction 1 -4.49034e-011 -1.1993e-026   
     length 0.622093   
     axis 7.64668e-015 90 90   XYZ
    dof rx
    limits (0.0 90.0)
  end
  begin
     id 23
     name lthumb
     direction 0.707107 -6.34867e-011 0.707107   
     length 0.893204   
     axis -90 45 -1.62303e-014   XYZ
    dof rx rz
    limits (-45.0 45.0)
           (-45.0 45.0)
  end
  begin
     id 24 
     name rclavicle
     direction -0.93442 0.355634 -0.0195692   
     length 3.62463  
     axis 0 0 0   XYZ 
    dof ry rz
    limits (-10.0 20.0)
           (-20.0 0.0)
  end
  begin
     id 25 
     name rhumerus
     direction -1 -4.48957e-011 -1.19147e-027  
     length 5.14182   
     axis 180 30 90   XYZ
    dof rx ry rz
    limits (-90.0 60.0)
           (-90.0 90.0)
           (-90.0 90.0)
  end
  begin
     id 26 
     name rradius
     direction -1 -4.48952e-011 -3.81062e-027   
     length 3.35565   
     axis 180 30 90   XYZ
    dof rx
    limits (-10.0 170.0)
  end
  begin
     id 27 
     name rwrist
     direction -1 -4.48973e-011 -2.99621e-027   
     length 1.67782   
     axis 1.95339e-015 -90 -90   XYZ
    dof ry
    limits (-180.0 0.0)
  end
  begin
     id 28
     name rhand
     direction -1 -4.48895e-011 -5.98727e-027   
     length 0.801042   
     axis 3.82337e-015 -90 -90   XYZ
    dof rx rz
    limits (-90.0 90.0)
           (-45.0 45.0)
  end
  begin
     id 29
     name rfingers
     direction -1 -4.49065e-011 -1.19972e-026   
     length 0.645821   
     axis 7.64668e-015 -90 -90   XYZ
    dof rx
    limits (0.0 90.0)
  end
  begin
     id 30
     name rthumb
     direction -0.707107 -6.34957e-011 0.707107   
     length 0.927273   
     axis -90 -45 1.62303e-014   XYZ
    dof rx rz
    limits (-45.0 45.0)
           (-45.0 45.0)
  end
:hierarchy
  begin
    root lhipjoint rhipjoint lowerback
    lhipjoint lfemur
    lfemur ltibia
    ltibia lfoot
    lfoot ltoes
    rhipjoint rfemur
    rfemur rtibia
    rtibia rfoot
    rfoot rtoes
    lowerback upperback
    upperback thorax
    thorax lowerneck lclavicle rclavicle
    lowerneck upperneck
    upperneck head
    lclavicle lhumerus
    lhumerus lradius
    lradius lwrist
    lwrist lhand lthumb
    lhand lfingers
    rclavicle rhumerus
    rhumerus rradius
    rradius rwrist
    rwrist rhand rthumb
    rhand rfingers
  end

#!OML:ASF E:\Style4\Style4.ASF
:FULLY-SPECIFIED
:DEGREES
233
root -0.237124 18.0417 -1.94691 0.102184 -2.98944 0.228441
lowerback 3.59902 2.77292 -4.06314
upperback 1.34153 3.53198 -2.07148
thorax -0.750027 1.76028 -0.00561448
lowerneck 2.17106 -6.83162 -7.68819
upperneck 2.42809 -9.31876 4.56286
head 1.01449 -4.7093 2.71146
rclavicle 2.89232e-014 -1.51076e-014
rhumerus 17.332 -5.15592 -42.7776
rradius 126.985
rwrist -51.6366
rhand -34.3291 19.1385
rfingers 7.12502
rthumb -7.49719 -10.7086
lclavicle 2.89232e-014 -1.51076e-014
lhumerus -54.2985 -42.6246 106.702
lradius 108.67
lwrist 34.9977
lhand -7.44021 20.8124
lfingers 7.12502
lthumb 18.4474 49.9577
rfemur -8.0152 4.26345 18.7144
rtibia 22.1326
rfoot -13.4256 -13.0535
rtoes -9.67352
lfemur -4.50355 -1.12276 -19.6541
ltibia 21.0151
lfoot -17.2471 14.0211
ltoes -14.7383
234
root -0.237661 18.0464 -1.94458 0.123563 -2.90727 0.16099
lowerback 3.58128 2.71961 -3.9978
upperback 1.2909 3.46181 -2.13655
thorax -0.782267 1.72641 -0.105674
lowerneck 2.11407 -6.76503 -7.63676
upperneck 2.55962 -9.22575 4.49532
head 1.05388 -4.66331 2.67716
rclavicle -2.33572e-014 -7.95139e-016
rhumerus 19.0129 -7.11801 -41.6936
rradius 125.904
rwrist -52.4354
rhand -34.5601 19.228
rfingers 7.12502
rthumb -7.72016 -10.611
lclavicle -2.33572e-014 -7.95139e-016
lhumerus -54.272 -42.6855 106.657
lradius 108.61
lwrist 34.7083
lhand -7.46931 20.7484
lfingers 7.12502
lthumb 18.4194 49.8963
rfemur -7.9155 4.23239 18.7912
rtibia 21.959
rfoot -13.3673 -13.096
rtoes -9.72336
lfemur -4.45024 -1.23916 -19.585
ltibia 20.8769
lfoot -17.2519 14.0173
ltoes -14.2946
235
root -0.238102 18.0512 -1.94085 0.132698 -2.86917 0.193623
lowerback 3.54138 2.67189 -4.04564
upperback 1.24364 3.3963 -2.21889
thorax -0.804462 1.69449 -0.159794
lowerneck 2.1833 -6.63471 -7.70267
upperneck 2.5662 -9.05902 4.53889
head 1.03884 -4.58135 2.70972
rclavicle -4.30369e-014 3.33958e-014
rhumerus 20.8096 -9.22233 -40.8503
rradius 124.74
rwrist -53.4554
rhand -34.3552 18.3095
rfingers 7.12502
rthumb -7.52246 -11.5367
lclavicle -4.30369e-014 3.33958e-014
lhumerus -54.2639 -42.7234 106.605
lradius 108.633
lwrist 34.3151
lhand -7.60313 21.0019
lfingers 7.12502
lthumb 18.2907 50.162
rfemur -7.81334 4.21603 18.7558
rtibia 21.7912
rfoot -13.3362 -13.097
rtoes -9.45471
lfemur -4.36758 -1.3448 -19.6269
ltibia 20.7235
lfoot -17.3081 14.0231
ltoes -13.7007
236
root -0.239726 18.0543 -1.94001 0.103535 -2.76623 0.191404
lowerback 3.60121 2.62017 -4.06615
upperback 1.20918 3.32097 -2.28765
thorax -0.868325 1.6581 -0.219352
lowerneck 2.24157 -6.52483 -7.8554
upperneck 2.5916 -8.92036 4.57975
head 1.03782 -4.51428 2.75554
rclavicle 3.49861e-014 -2.38542e-015
rhumerus 22.5612 -11.2811 -40.1162
rradius 123.425
rwrist -54.4995
rhand -34.1553 17.564
rfingers 7.12502
rthumb -7.32952 -12.2891
lclavicle 3.49861e-014 -2.38542e-015
lhumerus -54.2476 -42.8539 106.587
lradius 108.643
lwrist 34.1633
lhand -7.92357 21.0656
lfingers 7.12502
lthumb 17.9824 50.2543
rfemur -7.67577 4.17942 18.7675
rtibia 21.6346
rfoot -13.3097 -13.1281
rtoes -9.35229
lfemur -4.25871 -1.46883 -19.627
ltibia 20.5632
lfoot -17.3015 14.0682
ltoes -13.6089
237
root -0.242726 18.0571 -1.93763 0.0922978 -2.66998 0.222052
lowerback 3.65611 2.59093 -4.09394
upperback 1.19556 3.27579 -2.41051
thorax -0.906125 1.63626 -0.330771
lowerneck 2.20365 -6.48665 -7.76668
upperneck 2.61997 -8.8632 4.48039
head 1.03963 -4.48505 2.70578
rclavicle 3.1408e-014 4.77083e-015
rhumerus 24.2133 -13.181 -39.4215
rradius 121.98
rwrist -55.2312
rhand -34.1761 17.4279
rfingers 7.12502
rthumb -7.34956 -12.4244
lclavicle 3.1408e-014 4.77083e-015
lhumerus -54.2339 -43.0391 106.467
lradius 108.642
lwrist 34.081
lhand -8.13141 20.8119
lfingers 7.12502
lthumb 17.7824 50.0189
rfemur -7.58282 4.16889 18.7509
rtibia 21.5141
rfoot -13.2317 -13.2449
rtoes -9.57816
lfemur -4.15902 -1.56127 -19.6563
ltibia 20.3969
lfoot -17.278 14.0425
ltoes -13.2721
238
root -0.245209 18.0597 -1.93445 0.0906656 -2.58898 0.222568
lowerback 3.71498 2.55976 -4.08086
upperback 1.19037 3.22968 -2.52406
thorax -0.935938 1.61378 -0.455153
lowerneck 2.13892 -6.44702 -7.59926
upperneck 2.60243 -8.79801 4.29185
head 1.02209 -4.45055 2.61242
rclavicle -7.7526e-015 1.11319e-014
rhumerus 25.8848 -14.9957 -38.7794
rradius 120.415
rwrist -55.7833
rhand -34.2569 17.2929
rfingers 7.12502
rthumb -7.42756 -12.5567
lclavicle -7.7526e-015 1.11319e-014
lhumerus -54.0573 -43.2018 106.25
lradius 108.624
lwrist 34.0819
lhand -8.18909 20.6717
lfingers 7.12502
lthumb 17.7269 49.8837
rfemur -7.50068 4.16159 18.7638
rtibia 21.4196
rfoot -13.1775 -13.3041
rtoes -9.3343
lfemur -4.09343 -1.66672 -19.6579
ltibia 20.2782
lfoot -17.1917 14.1022
ltoes -13.3605
239
root -0.247431 18.0626 -1.93378 0.0893393 -2.47865 0.257028
lowerback 3.78615 2.52324 -4.13045
upperback 1.14664 3.17171 -2.61437
thorax -1.0169 1.5863 -0.522168
lowerneck 2.09019 -6.31718 -7.57832
upperneck 2.79089 -8.62072 4.17517
head 1.07232 -4.36372 2.56856
rclavicle -3.07122e-014 3.18055e-015
rhumerus 27.4537 -16.6796 -38.1853
rradius 118.709
rwrist -56.4107
rhand -34.2258 17.0926
rfingers 7.12502
rthumb -7.39752 -12.7581
lclavicle -3.07122e-014 3.18055e-015
lhumerus -53.9614 -43.2971 106.125
lradius 108.613
lwrist 34.1471
lhand -8.17504 20.6327
lfingers 7.12502
lthumb 17.7404 49.8435
rfemur -7.42977 4.12571 18.7326
rtibia 21.3501
rfoot -13.1762 -13.3263
rtoes -9.08682
lfemur -4.05716 -1.76377 -19.6902
ltibia 20.1934
lfoot -17.1717 14.0774
ltoes -13.0972
240
root -0.251547 18.0631 -1.9341 0.0803424 -2.37739 0.257018
lowerback 3.82572 2.44865 -4.1979
upperback 1.11521 3.065 -2.68295
thorax -1.06874 1.53402 -0.552512
lowerneck 2.07316 -6.14688 -7.54299
upperneck 2.93436 -8.39115 4.07608
head 1.09975 -4.2505 2.53111
rclavicle 8.34896e-015 -3.97569e-015
rhumerus 29.0741 -18.1964 -37.7737
rradius 116.911
rwrist -56.957
rhand -34.2052 16.7687
rfingers 7.12502
rthumb -7.37765 -13.0827
lclavicle 8.34896e-015 -3.97569e-015
lhumerus -53.859 -43.2293 105.924
lradius 108.603
lwrist 34.0638
lhand -8.16929 20.6961
lfingers 7.12502
lthumb 17.7459 49.9063
rfemur -7.36793 4.07569 18.7487
rtibia 21.2892
rfoot -13.1718 -13.3847
rtoes -9.08329
lfemur -4.02981 -1.80873 -19.6773
ltibia 20.1358
lfoot -17.0921 14.0707
ltoes -13.3761
